<mxfile host="65bd71144e">
    <diagram id="BQjRub_qfFK8uwhm5q6D" name="Page-1">
        <mxGraphModel dx="713" dy="562" grid="0" gridSize="10" guides="1" tooltips="1" connect="1" arrows="1" fold="1" page="1" pageScale="1" pageWidth="850" pageHeight="1100" math="0" shadow="0">
            <root>
                <mxCell id="0"/>
                <mxCell id="1" parent="0"/>
                <mxCell id="14" value="" style="group" parent="1" vertex="1" connectable="0">
                    <mxGeometry x="100" y="148" width="580" height="160" as="geometry"/>
                </mxCell>
                <mxCell id="2" value="S3" style="sketch=0;points=[[0,0,0],[0.25,0,0],[0.5,0,0],[0.75,0,0],[1,0,0],[0,1,0],[0.25,1,0],[0.5,1,0],[0.75,1,0],[1,1,0],[0,0.25,0],[0,0.5,0],[0,0.75,0],[1,0.25,0],[1,0.5,0],[1,0.75,0]];outlineConnect=0;fontColor=default;gradientColor=none;gradientDirection=north;fillColor=#F58534;strokeColor=#ffffff;dashed=0;verticalLabelPosition=bottom;verticalAlign=top;align=center;html=1;fontSize=12;fontStyle=0;aspect=fixed;shape=mxgraph.aws4.resourceIcon;resIcon=mxgraph.aws4.s3;" parent="14" vertex="1">
                    <mxGeometry width="46.550000000000004" height="46.550000000000004" as="geometry"/>
                </mxCell>
                <mxCell id="4" value="Glue&lt;br&gt;Crawlers" style="sketch=0;points=[[0,0,0],[0.25,0,0],[0.5,0,0],[0.75,0,0],[1,0,0],[0,1,0],[0.25,1,0],[0.5,1,0],[0.75,1,0],[1,1,0],[0,0.25,0],[0,0.5,0],[0,0.75,0],[1,0.25,0],[1,0.5,0],[1,0.75,0]];outlineConnect=0;fontColor=default;gradientColor=none;gradientDirection=north;fillColor=#F58534;strokeColor=#ffffff;dashed=0;verticalLabelPosition=bottom;verticalAlign=top;align=center;html=1;fontSize=12;fontStyle=0;aspect=fixed;shape=mxgraph.aws4.resourceIcon;resIcon=mxgraph.aws4.glue;" parent="14" vertex="1">
                    <mxGeometry x="173.99999999999997" width="46.550000000000004" height="46.550000000000004" as="geometry"/>
                </mxCell>
                <mxCell id="9" style="edgeStyle=none;html=1;exitX=1;exitY=0.5;exitDx=0;exitDy=0;exitPerimeter=0;entryX=0;entryY=0.5;entryDx=0;entryDy=0;entryPerimeter=0;fontColor=default;" parent="14" source="2" target="4" edge="1">
                    <mxGeometry relative="1" as="geometry"/>
                </mxCell>
                <mxCell id="5" value="Glue &lt;br&gt;Data &lt;br&gt;catalog" style="sketch=0;outlineConnect=0;fontColor=#FFFFFF;gradientColor=none;fillColor=#F58534;strokeColor=none;dashed=0;verticalLabelPosition=bottom;verticalAlign=top;align=center;html=1;fontSize=12;fontStyle=0;aspect=fixed;pointerEvents=1;shape=mxgraph.aws4.glue_data_catalog;" parent="14" vertex="1">
                    <mxGeometry x="347.99999999999994" width="42.973" height="46.550000000000004" as="geometry"/>
                </mxCell>
                <mxCell id="10" style="edgeStyle=none;html=1;exitX=1;exitY=0.5;exitDx=0;exitDy=0;exitPerimeter=0;fontColor=default;" parent="14" source="4" target="5" edge="1">
                    <mxGeometry relative="1" as="geometry"/>
                </mxCell>
                <mxCell id="12" style="edgeStyle=none;html=1;entryX=0.5;entryY=1;entryDx=0;entryDy=0;entryPerimeter=0;fontColor=default;dashed=1;" parent="14" source="6" target="2" edge="1">
                    <mxGeometry relative="1" as="geometry">
                        <Array as="points">
                            <mxPoint x="551" y="160"/>
                            <mxPoint x="290" y="160"/>
                            <mxPoint x="27.549999999999997" y="160"/>
                        </Array>
                    </mxGeometry>
                </mxCell>
                <mxCell id="13" value="store the result" style="edgeLabel;html=1;align=center;verticalAlign=middle;resizable=0;points=[];fontColor=default;" parent="12" vertex="1" connectable="0">
                    <mxGeometry x="0.2961" y="2" relative="1" as="geometry">
                        <mxPoint x="83" y="-2" as="offset"/>
                    </mxGeometry>
                </mxCell>
                <mxCell id="6" value="Athena" style="outlineConnect=0;dashed=0;verticalLabelPosition=bottom;verticalAlign=top;align=center;html=1;shape=mxgraph.aws3.athena;fillColor=#F58534;gradientColor=none;" parent="14" vertex="1">
                    <mxGeometry x="522" y="-8.72" width="57.999999999999986" height="64" as="geometry"/>
                </mxCell>
                <mxCell id="11" style="edgeStyle=none;html=1;entryX=0;entryY=0.5;entryDx=0;entryDy=0;entryPerimeter=0;fontColor=default;" parent="14" source="5" target="6" edge="1">
                    <mxGeometry relative="1" as="geometry"/>
                </mxCell>
                <mxCell id="15" value="" style="group" vertex="1" connectable="0" parent="1">
                    <mxGeometry x="85" y="356" width="580" height="160" as="geometry"/>
                </mxCell>
                <mxCell id="16" value="S3" style="sketch=0;points=[[0,0,0],[0.25,0,0],[0.5,0,0],[0.75,0,0],[1,0,0],[0,1,0],[0.25,1,0],[0.5,1,0],[0.75,1,0],[1,1,0],[0,0.25,0],[0,0.5,0],[0,0.75,0],[1,0.25,0],[1,0.5,0],[1,0.75,0]];outlineConnect=0;fontColor=default;gradientColor=none;gradientDirection=north;fillColor=#F58534;strokeColor=#ffffff;dashed=0;verticalLabelPosition=bottom;verticalAlign=top;align=center;html=1;fontSize=12;fontStyle=0;aspect=fixed;shape=mxgraph.aws4.resourceIcon;resIcon=mxgraph.aws4.s3;" vertex="1" parent="15">
                    <mxGeometry width="46.550000000000004" height="46.550000000000004" as="geometry"/>
                </mxCell>
                <mxCell id="17" value="Glue&lt;br&gt;Crawlers" style="sketch=0;points=[[0,0,0],[0.25,0,0],[0.5,0,0],[0.75,0,0],[1,0,0],[0,1,0],[0.25,1,0],[0.5,1,0],[0.75,1,0],[1,1,0],[0,0.25,0],[0,0.5,0],[0,0.75,0],[1,0.25,0],[1,0.5,0],[1,0.75,0]];outlineConnect=0;fontColor=default;gradientColor=none;gradientDirection=north;fillColor=#F58534;strokeColor=#ffffff;dashed=0;verticalLabelPosition=bottom;verticalAlign=top;align=center;html=1;fontSize=12;fontStyle=0;aspect=fixed;shape=mxgraph.aws4.resourceIcon;resIcon=mxgraph.aws4.glue;" vertex="1" parent="15">
                    <mxGeometry x="173.99999999999997" width="46.550000000000004" height="46.550000000000004" as="geometry"/>
                </mxCell>
                <mxCell id="18" style="edgeStyle=none;html=1;exitX=1;exitY=0.5;exitDx=0;exitDy=0;exitPerimeter=0;entryX=0;entryY=0.5;entryDx=0;entryDy=0;entryPerimeter=0;fontColor=default;" edge="1" parent="15" source="16" target="17">
                    <mxGeometry relative="1" as="geometry"/>
                </mxCell>
                <mxCell id="19" value="Glue &lt;br&gt;Data &lt;br&gt;catalog" style="sketch=0;outlineConnect=0;fontColor=#FFFFFF;gradientColor=none;fillColor=#F58534;strokeColor=none;dashed=0;verticalLabelPosition=bottom;verticalAlign=top;align=center;html=1;fontSize=12;fontStyle=0;aspect=fixed;pointerEvents=1;shape=mxgraph.aws4.glue_data_catalog;" vertex="1" parent="15">
                    <mxGeometry x="347.99999999999994" width="42.973" height="46.550000000000004" as="geometry"/>
                </mxCell>
                <mxCell id="20" style="edgeStyle=none;html=1;exitX=1;exitY=0.5;exitDx=0;exitDy=0;exitPerimeter=0;fontColor=default;" edge="1" parent="15" source="17" target="19">
                    <mxGeometry relative="1" as="geometry"/>
                </mxCell>
                <mxCell id="21" style="edgeStyle=none;html=1;entryX=0.5;entryY=1;entryDx=0;entryDy=0;entryPerimeter=0;fontColor=default;dashed=1;" edge="1" parent="15" source="23" target="16">
                    <mxGeometry relative="1" as="geometry">
                        <Array as="points">
                            <mxPoint x="551" y="160"/>
                            <mxPoint x="290" y="160"/>
                            <mxPoint x="27.549999999999997" y="160"/>
                        </Array>
                    </mxGeometry>
                </mxCell>
                <mxCell id="22" value="store the result" style="edgeLabel;html=1;align=center;verticalAlign=middle;resizable=0;points=[];fontColor=default;" vertex="1" connectable="0" parent="21">
                    <mxGeometry x="0.2961" y="2" relative="1" as="geometry">
                        <mxPoint x="83" y="-2" as="offset"/>
                    </mxGeometry>
                </mxCell>
                <mxCell id="23" value="Athena" style="outlineConnect=0;dashed=0;verticalLabelPosition=bottom;verticalAlign=top;align=center;html=1;shape=mxgraph.aws3.athena;fillColor=#F58534;gradientColor=none;" vertex="1" parent="15">
                    <mxGeometry x="522" y="-8.72" width="57.999999999999986" height="64" as="geometry"/>
                </mxCell>
                <mxCell id="24" style="edgeStyle=none;html=1;entryX=0;entryY=0.5;entryDx=0;entryDy=0;entryPerimeter=0;fontColor=default;" edge="1" parent="15" source="19" target="23">
                    <mxGeometry relative="1" as="geometry"/>
                </mxCell>
                <mxCell id="25" value="" style="outlineConnect=0;dashed=0;verticalLabelPosition=bottom;verticalAlign=top;align=center;html=1;shape=mxgraph.aws3.lambda_function;fillColor=#F58534;gradientColor=none;" vertex="1" parent="1">
                    <mxGeometry x="719" y="350" width="47" height="55" as="geometry"/>
                </mxCell>
                <mxCell id="26" value="" style="edgeStyle=none;html=1;" edge="1" parent="1" source="23" target="25">
                    <mxGeometry relative="1" as="geometry"/>
                </mxCell>
                <mxCell id="28" style="edgeStyle=none;html=1;" edge="1" parent="1" source="27" target="25">
                    <mxGeometry relative="1" as="geometry"/>
                </mxCell>
                <mxCell id="27" value="" style="sketch=0;points=[[0,0,0],[0.25,0,0],[0.5,0,0],[0.75,0,0],[1,0,0],[0,1,0],[0.25,1,0],[0.5,1,0],[0.75,1,0],[1,1,0],[0,0.25,0],[0,0.5,0],[0,0.75,0],[1,0.25,0],[1,0.5,0],[1,0.75,0]];outlineConnect=0;fontColor=#232F3E;gradientColor=none;gradientDirection=north;fillColor=#F58534;strokeColor=#ffffff;dashed=0;verticalLabelPosition=bottom;verticalAlign=top;align=center;html=1;fontSize=12;fontStyle=0;aspect=fixed;shape=mxgraph.aws4.resourceIcon;resIcon=mxgraph.aws4.api_gateway;" vertex="1" parent="1">
                    <mxGeometry x="712" y="465" width="60" height="60" as="geometry"/>
                </mxCell>
            </root>
        </mxGraphModel>
    </diagram>
</mxfile>